<svg xmlns="http://www.w3.org/2000/svg" width="1200" height="620" viewBox="0 0 1200 620" role="img" aria-labelledby="title desc">
  <title id="title">Ödeme Süresi karar haritası</title>
  <desc id="desc">Ödeme yönetimi, borcun tutarı kadar vadesini, maliyetini, önceliğini ve nakit etkisini birlikte ele alır. Bu kursun sınırı “Tahsilat Süresi” ile “İşletme Bütçesi” başlıkları arasında özellikle korunur: Ödeme Süresi, kendi karar anı ve çıktısıyla ele alınır. Dört aşama: gösterge, kanıt, karar eşiği ve çalışma çıktısı.</desc>
  <rect width="1200" height="620" rx="28" fill="#f8fafc"/>
  <rect x="42" y="42" width="1116" height="118" rx="20" fill="#b45309"/>
  <text x="78" y="94" font-family="Arial, sans-serif" font-size="31" font-weight="700" fill="white">Ödeme Süresi</text>
  <text x="78" y="132" font-family="Arial, sans-serif" font-size="20" fill="white">Karar akışı · timeline</text>
  <rect x="56" y="230" width="244" height="190" rx="20" fill="#fef3c7" stroke="#b45309" stroke-width="3"/>
    <circle cx="100" cy="274" r="22" fill="#b45309"/><text x="100" y="282" text-anchor="middle" font-family="Arial" font-size="20" font-weight="700" fill="white">1</text>
    <text x="178" y="335" text-anchor="middle" font-family="Arial" font-size="19" font-weight="700" fill="#0f172a">ödeme süresi için borç servis k…</text>
    <path d="M302 325 H334" stroke="#b45309" stroke-width="5"/><path d="M326 314 L338 325 L326 336" fill="none" stroke="#b45309" stroke-width="5"/>
<rect x="340" y="230" width="244" height="190" rx="20" fill="#fef3c7" stroke="#b45309" stroke-width="3"/>
    <circle cx="384" cy="274" r="22" fill="#b45309"/><text x="384" y="282" text-anchor="middle" font-family="Arial" font-size="20" font-weight="700" fill="white">2</text>
    <text x="462" y="335" text-anchor="middle" font-family="Arial" font-size="19" font-weight="700" fill="#0f172a">Kanıt</text>
    <path d="M586 325 H618" stroke="#b45309" stroke-width="5"/><path d="M610 314 L622 325 L610 336" fill="none" stroke="#b45309" stroke-width="5"/>
<rect x="624" y="230" width="244" height="190" rx="20" fill="#fef3c7" stroke="#b45309" stroke-width="3"/>
    <circle cx="668" cy="274" r="22" fill="#b45309"/><text x="668" y="282" text-anchor="middle" font-family="Arial" font-size="20" font-weight="700" fill="white">3</text>
    <text x="746" y="335" text-anchor="middle" font-family="Arial" font-size="19" font-weight="700" fill="#0f172a">Karar eşiği</text>
    <path d="M870 325 H902" stroke="#b45309" stroke-width="5"/><path d="M894 314 L906 325 L894 336" fill="none" stroke="#b45309" stroke-width="5"/>
<rect x="908" y="230" width="244" height="190" rx="20" fill="#fef3c7" stroke="#b45309" stroke-width="3"/>
    <circle cx="952" cy="274" r="22" fill="#b45309"/><text x="952" y="282" text-anchor="middle" font-family="Arial" font-size="20" font-weight="700" fill="white">4</text>
    <text x="1030" y="335" text-anchor="middle" font-family="Arial" font-size="19" font-weight="700" fill="#0f172a">Ödeme Süresi odaklı borç önceli…</text>
  <text x="600" y="510" text-anchor="middle" font-family="Arial, sans-serif" font-size="23" fill="#334155">hangi borcun ne zaman ve hangi finansman maliyetiyle kapatılacağını seçmek; satın alma yetkilisi bu seçimi yönetim onayından önce yaparken tahsilat süresi ve işletme bütçesi kararlarını bunun yerine kullanmaz</text>
  <text x="600" y="558" text-anchor="middle" font-family="Arial, sans-serif" font-size="17" fill="#64748b">LocalAkademi · Kurs 11 · temsili karar görseli</text>
</svg>