<svg xmlns="http://www.w3.org/2000/svg" width="1200" height="620" viewBox="0 0 1200 620" role="img" aria-labelledby="title desc" data-visual-kind="line" data-fingerprint="4b903aceb74e1e8d" data-series-labels="Ocak|Şubat|Mart|Nisan|Mayıs">
<title id="title">İşletme Bütçesi · line</title>
<desc id="desc">Dönem sonu nakit için konuya özel ölçüm veya süreç gösterimi. Değerler öğretim amaçlı temsili örnektir.</desc>
<defs><marker id="arrow" markerWidth="10" markerHeight="10" refX="8" refY="3" orient="auto"><path d="M0,0 L0,6 L9,3 z" fill="#7c3aed"/></marker></defs>
<style>.title{font:700 31px Arial;fill:#0f172a}.subtitle{font:18px Arial;fill:#475569}.axis{font:16px Arial;fill:#475569}.label{font:700 17px Arial;fill:#0f172a}.value{font:700 15px Arial;fill:#334155}.white{font:700 17px Arial;fill:white}</style>
<rect width="1200" height="620" rx="28" fill="#f8fafc"/><text x="70" y="68" class="title">İşletme Bütçesi</text><text x="70" y="104" class="subtitle">Dönem sonu nakit · öğretim amaçlı temsili veri / süreç</text>
<line x1="120" y1="480" x2="1020" y2="480" stroke="#e2e8f0" stroke-width="1"/><text x="106" y="485" text-anchor="end" class="axis">0</text><line x1="120" y1="402.5" x2="1020" y2="402.5" stroke="#e2e8f0" stroke-width="1"/><text x="106" y="407.5" text-anchor="end" class="axis">25</text><line x1="120" y1="325" x2="1020" y2="325" stroke="#e2e8f0" stroke-width="1"/><text x="106" y="330" text-anchor="end" class="axis">50</text><line x1="120" y1="247.5" x2="1020" y2="247.5" stroke="#e2e8f0" stroke-width="1"/><text x="106" y="252.5" text-anchor="end" class="axis">75</text><line x1="120" y1="170" x2="1020" y2="170" stroke="#e2e8f0" stroke-width="1"/><text x="106" y="175" text-anchor="end" class="axis">100</text><path d="M120 480V170M120 480H1020" fill="none" stroke="#334155" stroke-width="2"/><polyline points="120,406.4 248.57142857142858,406.4 377.14285714285717,201.59999999999997 505.7142857142858,201.59999999999997 634.2857142857143,230.39999999999998 762.8571428571429,272 891.4285714285716,249.6 1020.0000000000001,230.39999999999998" fill="none" stroke="#7c3aed" stroke-width="7"/><circle cx="120" cy="406.4" r="7" fill="#7c3aed"/><text x="120" y="391.4" text-anchor="middle" class="value">23</text><text x="120" y="510" text-anchor="middle" class="axis">Ocak</text><circle cx="248.57142857142858" cy="406.4" r="7" fill="#7c3aed"/><text x="248.57142857142858" y="391.4" text-anchor="middle" class="value">23</text><text x="248.57142857142858" y="510" text-anchor="middle" class="axis">Ocak</text><circle cx="377.14285714285717" cy="201.59999999999997" r="7" fill="#7c3aed"/><text x="377.14285714285717" y="186.59999999999997" text-anchor="middle" class="value">87</text><text x="377.14285714285717" y="510" text-anchor="middle" class="axis">Şubat</text><circle cx="505.7142857142858" cy="201.59999999999997" r="7" fill="#7c3aed"/><text x="505.7142857142858" y="186.59999999999997" text-anchor="middle" class="value">87</text><text x="505.7142857142858" y="510" text-anchor="middle" class="axis">Şubat</text><circle cx="634.2857142857143" cy="230.39999999999998" r="7" fill="#7c3aed"/><text x="634.2857142857143" y="215.39999999999998" text-anchor="middle" class="value">78</text><text x="634.2857142857143" y="510" text-anchor="middle" class="axis">Mart</text><circle cx="762.8571428571429" cy="272" r="7" fill="#7c3aed"/><text x="762.8571428571429" y="257" text-anchor="middle" class="value">65</text><text x="762.8571428571429" y="510" text-anchor="middle" class="axis">Nisan</text><circle cx="891.4285714285716" cy="249.6" r="7" fill="#7c3aed"/><text x="891.4285714285716" y="234.6" text-anchor="middle" class="value">72</text><text x="891.4285714285716" y="510" text-anchor="middle" class="axis">Nisan</text><circle cx="1020.0000000000001" cy="230.39999999999998" r="7" fill="#7c3aed"/><text x="1020.0000000000001" y="215.39999999999998" text-anchor="middle" class="value">78</text><text x="1020.0000000000001" y="510" text-anchor="middle" class="axis">Mayıs</text><text x="570" y="548" text-anchor="middle" class="axis">Dönem sonu nakit</text>
<text x="70" y="590" class="subtitle">Kaynak tanımı: banka hareketi, vade listesi ve teyitli ödeme planı · LocalKarar yayın standardı v4</text></svg>