<svg xmlns="http://www.w3.org/2000/svg" width="1200" height="620" viewBox="0 0 1200 620" role="img" aria-labelledby="title desc" data-visual-kind="bar" data-fingerprint="64c7dd5f51bc123e" data-series-labels="Başlangıç|Kanıt|Karar|Uygulama|Doğrulama">
<title id="title">AI Çıktısı Doğrulama · bar</title>
<desc id="desc">AI Çıktısı Doğrulama kontrol göstergesi için konuya özel ölçüm veya süreç gösterimi. Değerler öğretim amaçlı temsili örnektir.</desc>
<defs><marker id="arrow" markerWidth="10" markerHeight="10" refX="8" refY="3" orient="auto"><path d="M0,0 L0,6 L9,3 z" fill="#be123c"/></marker></defs>
<style>.title{font:700 31px Arial;fill:#0f172a}.subtitle{font:18px Arial;fill:#475569}.axis{font:16px Arial;fill:#475569}.label{font:700 17px Arial;fill:#0f172a}.value{font:700 15px Arial;fill:#334155}.white{font:700 17px Arial;fill:white}</style>
<rect width="1200" height="620" rx="28" fill="#f8fafc"/><text x="70" y="68" class="title">AI Çıktısı Doğrulama</text><text x="70" y="104" class="subtitle">AI Çıktısı Doğrulama kontrol göstergesi · öğretim amaçlı temsili veri / süreç</text>
<line x1="120" y1="480" x2="1020" y2="480" stroke="#e2e8f0" stroke-width="1"/><text x="106" y="485" text-anchor="end" class="axis">0</text><line x1="120" y1="402.5" x2="1020" y2="402.5" stroke="#e2e8f0" stroke-width="1"/><text x="106" y="407.5" text-anchor="end" class="axis">25</text><line x1="120" y1="325" x2="1020" y2="325" stroke="#e2e8f0" stroke-width="1"/><text x="106" y="330" text-anchor="end" class="axis">50</text><line x1="120" y1="247.5" x2="1020" y2="247.5" stroke="#e2e8f0" stroke-width="1"/><text x="106" y="252.5" text-anchor="end" class="axis">75</text><line x1="120" y1="170" x2="1020" y2="170" stroke="#e2e8f0" stroke-width="1"/><text x="106" y="175" text-anchor="end" class="axis">100</text><path d="M120 480V170M120 480H1020" fill="none" stroke="#334155" stroke-width="2"/><rect x="175" y="339.2" width="92" height="140.8" rx="8" fill="#be123c"/><text x="221" y="327.2" text-anchor="middle" class="value">44</text><rect x="340" y="201.59999999999997" width="92" height="278.40000000000003" rx="8" fill="#be123c"/><text x="386" y="189.59999999999997" text-anchor="middle" class="value">87</text><rect x="505" y="422.4" width="92" height="57.6" rx="8" fill="#be123c"/><text x="551" y="410.4" text-anchor="middle" class="value">18</text><rect x="670" y="265.6" width="92" height="214.4" rx="8" fill="#be123c"/><text x="716" y="253.60000000000002" text-anchor="middle" class="value">67</text><rect x="835" y="294.4" width="92" height="185.60000000000002" rx="8" fill="#be123c"/><text x="881" y="282.4" text-anchor="middle" class="value">58</text><text x="221" y="515" text-anchor="middle" class="axis">Başlangıç</text><text x="386" y="515" text-anchor="middle" class="axis">Kanıt</text><text x="551" y="515" text-anchor="middle" class="axis">Karar</text><text x="716" y="515" text-anchor="middle" class="axis">Uygulama</text><text x="881" y="515" text-anchor="middle" class="axis">Doğrulama</text>
<text x="70" y="590" class="subtitle">Kaynak tanımı: tarih, sorumlu, kaynak kayıt ve sonuç · LocalAkademi yayın standardı v4</text></svg>