<svg xmlns="http://www.w3.org/2000/svg" width="1200" height="620" viewBox="0 0 1200 620" role="img" aria-labelledby="title desc" data-visual-kind="waterfall" data-fingerprint="18f60d03e8110280" data-series-labels="Ürün|İşçilik|Kanal|Lojistik|Kayıp">
<title id="title">Komisyon Oranları · waterfall</title>
<desc id="desc">Sipariş başı gerçek maliyet için konuya özel ölçüm veya süreç gösterimi. Değerler öğretim amaçlı temsili örnektir.</desc>
<defs><marker id="arrow" markerWidth="10" markerHeight="10" refX="8" refY="3" orient="auto"><path d="M0,0 L0,6 L9,3 z" fill="#2563eb"/></marker></defs>
<style>.title{font:700 31px Arial;fill:#0f172a}.subtitle{font:18px Arial;fill:#475569}.axis{font:16px Arial;fill:#475569}.label{font:700 17px Arial;fill:#0f172a}.value{font:700 15px Arial;fill:#334155}.white{font:700 17px Arial;fill:white}</style>
<rect width="1200" height="620" rx="28" fill="#f8fafc"/><text x="70" y="68" class="title">Komisyon Oranları</text><text x="70" y="104" class="subtitle">Sipariş başı gerçek maliyet · öğretim amaçlı temsili veri / süreç</text>
<path d="M120 480V170M120 480H1020" fill="none" stroke="#334155" stroke-width="2"/><rect x="165" y="216" width="105" height="264" rx="7" fill="#2563eb"/><text x="217" y="206" text-anchor="middle" class="value">+120</text><rect x="335" y="216" width="105" height="85.80000000000001" rx="7" fill="#dc2626"/><text x="387" y="206" text-anchor="middle" class="value">-39</text><rect x="505" y="301.79999999999995" width="105" height="48.400000000000006" rx="7" fill="#dc2626"/><text x="557" y="291.79999999999995" text-anchor="middle" class="value">-22</text><rect x="675" y="350.2" width="105" height="48.400000000000006" rx="7" fill="#dc2626"/><text x="727" y="340.2" text-anchor="middle" class="value">-22</text><rect x="845" y="398.6" width="105" height="81.4" rx="7" fill="#2563eb"/><text x="897" y="388.6" text-anchor="middle" class="value">+37</text><text x="217" y="520" text-anchor="middle" class="axis">Gelir</text><text x="387" y="520" text-anchor="middle" class="axis">Kesinti</text><text x="557" y="520" text-anchor="middle" class="axis">Operasyon</text><text x="727" y="520" text-anchor="middle" class="axis">Kayıp</text><text x="897" y="520" text-anchor="middle" class="axis">Kalan</text>
<text x="70" y="590" class="subtitle">Kaynak tanımı: fatura, zaman kaydı, komisyon ekstresi ve iade/hasar kaydı · LocalKarar yayın standardı v4</text></svg>