<svg xmlns="http://www.w3.org/2000/svg" width="1200" height="620" viewBox="0 0 1200 620" role="img" aria-labelledby="title desc" data-visual-kind="scatter" data-fingerprint="284216c30332f7f3" data-series-labels="Gösterim|Detay|Sepet|Sipariş|Tekrar">
<title id="title">Pazar Yeri Analizi · scatter</title>
<desc id="desc">Kanal net katkı oranı için konuya özel ölçüm veya süreç gösterimi. Değerler öğretim amaçlı temsili örnektir.</desc>
<defs><marker id="arrow" markerWidth="10" markerHeight="10" refX="8" refY="3" orient="auto"><path d="M0,0 L0,6 L9,3 z" fill="#2563eb"/></marker></defs>
<style>.title{font:700 31px Arial;fill:#0f172a}.subtitle{font:18px Arial;fill:#475569}.axis{font:16px Arial;fill:#475569}.label{font:700 17px Arial;fill:#0f172a}.value{font:700 15px Arial;fill:#334155}.white{font:700 17px Arial;fill:white}</style>
<rect width="1200" height="620" rx="28" fill="#f8fafc"/><text x="70" y="68" class="title">Pazar Yeri Analizi</text><text x="70" y="104" class="subtitle">Kanal net katkı oranı · öğretim amaçlı temsili veri / süreç</text>
<path d="M120 480V170M120 480H1020" fill="none" stroke="#334155" stroke-width="2"/><circle cx="190" cy="378" r="17.625" fill="#2563eb" opacity=".72"/><text x="190" y="353.375" text-anchor="middle" class="value">1</text><circle cx="310" cy="381" r="17.125" fill="#2563eb" opacity=".72"/><text x="310" y="356.875" text-anchor="middle" class="value">2</text><circle cx="430" cy="246" r="12.5" fill="#2563eb" opacity=".72"/><text x="430" y="226.5" text-anchor="middle" class="value">3</text><circle cx="550" cy="414" r="21.125" fill="#2563eb" opacity=".72"/><text x="550" y="385.875" text-anchor="middle" class="value">4</text><circle cx="670" cy="213" r="12.75" fill="#2563eb" opacity=".72"/><text x="670" y="193.25" text-anchor="middle" class="value">5</text><circle cx="790" cy="420" r="19.75" fill="#2563eb" opacity=".72"/><text x="790" y="393.25" text-anchor="middle" class="value">6</text><circle cx="910" cy="309" r="14.125" fill="#2563eb" opacity=".72"/><text x="910" y="287.875" text-anchor="middle" class="value">7</text><text x="570" y="535" class="axis">Hacim / uygulanabilirlik →</text><text x="48" y="330" transform="rotate(-90 48 330)" class="axis">Kanal net katkı oranı →</text>
<text x="70" y="590" class="subtitle">Kaynak tanımı: platform ekstresi, güncel komisyon koşulu ve sipariş maliyet kaydı · LocalKarar yayın standardı v4</text></svg>