<svg xmlns="http://www.w3.org/2000/svg" width="1200" height="620" viewBox="0 0 1200 620" role="img" aria-labelledby="title desc" data-visual-kind="line" data-fingerprint="1100ce54c781e890" data-series-labels="Ocak|Şubat|Mart|Nisan|Mayıs">
<title id="title">Ciro Nedir? · line</title>
<desc id="desc">Aylık net satış için konuya özel ölçüm veya süreç gösterimi. Değerler öğretim amaçlı temsili örnektir.</desc>
<defs><marker id="arrow" markerWidth="10" markerHeight="10" refX="8" refY="3" orient="auto"><path d="M0,0 L0,6 L9,3 z" fill="#2563eb"/></marker></defs>
<style>.title{font:700 31px Arial;fill:#0f172a}.subtitle{font:18px Arial;fill:#475569}.axis{font:16px Arial;fill:#475569}.label{font:700 17px Arial;fill:#0f172a}.value{font:700 15px Arial;fill:#334155}.white{font:700 17px Arial;fill:white}</style>
<rect width="1200" height="620" rx="28" fill="#f8fafc"/><text x="70" y="68" class="title">Ciro Nedir?</text><text x="70" y="104" class="subtitle">Aylık net satış · öğretim amaçlı temsili veri / süreç</text>
<line x1="120" y1="480" x2="1020" y2="480" stroke="#e2e8f0" stroke-width="1"/><text x="106" y="485" text-anchor="end" class="axis">0</text><line x1="120" y1="402.5" x2="1020" y2="402.5" stroke="#e2e8f0" stroke-width="1"/><text x="106" y="407.5" text-anchor="end" class="axis">25</text><line x1="120" y1="325" x2="1020" y2="325" stroke="#e2e8f0" stroke-width="1"/><text x="106" y="330" text-anchor="end" class="axis">50</text><line x1="120" y1="247.5" x2="1020" y2="247.5" stroke="#e2e8f0" stroke-width="1"/><text x="106" y="252.5" text-anchor="end" class="axis">75</text><line x1="120" y1="170" x2="1020" y2="170" stroke="#e2e8f0" stroke-width="1"/><text x="106" y="175" text-anchor="end" class="axis">100</text><path d="M120 480V170M120 480H1020" fill="none" stroke="#334155" stroke-width="2"/><polyline points="120,396.8 248.57142857142858,268.79999999999995 377.14285714285717,336 505.7142857142858,220.8 634.2857142857143,380.8 762.8571428571429,390.4 891.4285714285716,320 1020.0000000000001,361.6" fill="none" stroke="#2563eb" stroke-width="7"/><circle cx="120" cy="396.8" r="7" fill="#2563eb"/><text x="120" y="381.8" text-anchor="middle" class="value">26</text><text x="120" y="510" text-anchor="middle" class="axis">Ocak</text><circle cx="248.57142857142858" cy="268.79999999999995" r="7" fill="#2563eb"/><text x="248.57142857142858" y="253.79999999999995" text-anchor="middle" class="value">66</text><text x="248.57142857142858" y="510" text-anchor="middle" class="axis">Ocak</text><circle cx="377.14285714285717" cy="336" r="7" fill="#2563eb"/><text x="377.14285714285717" y="321" text-anchor="middle" class="value">45</text><text x="377.14285714285717" y="510" text-anchor="middle" class="axis">Şubat</text><circle cx="505.7142857142858" cy="220.8" r="7" fill="#2563eb"/><text x="505.7142857142858" y="205.8" text-anchor="middle" class="value">81</text><text x="505.7142857142858" y="510" text-anchor="middle" class="axis">Şubat</text><circle cx="634.2857142857143" cy="380.8" r="7" fill="#2563eb"/><text x="634.2857142857143" y="365.8" text-anchor="middle" class="value">31</text><text x="634.2857142857143" y="510" text-anchor="middle" class="axis">Mart</text><circle cx="762.8571428571429" cy="390.4" r="7" fill="#2563eb"/><text x="762.8571428571429" y="375.4" text-anchor="middle" class="value">28</text><text x="762.8571428571429" y="510" text-anchor="middle" class="axis">Nisan</text><circle cx="891.4285714285716" cy="320" r="7" fill="#2563eb"/><text x="891.4285714285716" y="305" text-anchor="middle" class="value">50</text><text x="891.4285714285716" y="510" text-anchor="middle" class="axis">Nisan</text><circle cx="1020.0000000000001" cy="361.6" r="7" fill="#2563eb"/><text x="1020.0000000000001" y="346.6" text-anchor="middle" class="value">37</text><text x="1020.0000000000001" y="510" text-anchor="middle" class="axis">Mayıs</text><text x="570" y="548" text-anchor="middle" class="axis">Aylık net satış</text>
<text x="70" y="590" class="subtitle">Kaynak tanımı: fatura, iade belgesi ve satış raporu · LocalKarar yayın standardı v4</text></svg>