<svg xmlns="http://www.w3.org/2000/svg" width="1200" height="620" viewBox="0 0 1200 620" role="img" aria-labelledby="title desc" data-visual-kind="line" data-fingerprint="0043f9b584a6437c" data-series-labels="Ocak|Şubat|Mart|Nisan|Mayıs">
<title id="title">Tahsilat Faturası · line</title>
<desc id="desc">Ortalama tahsilat günü için konuya özel ölçüm veya süreç gösterimi. Değerler öğretim amaçlı temsili örnektir.</desc>
<defs><marker id="arrow" markerWidth="10" markerHeight="10" refX="8" refY="3" orient="auto"><path d="M0,0 L0,6 L9,3 z" fill="#c2410c"/></marker></defs>
<style>.title{font:700 31px Arial;fill:#0f172a}.subtitle{font:18px Arial;fill:#475569}.axis{font:16px Arial;fill:#475569}.label{font:700 17px Arial;fill:#0f172a}.value{font:700 15px Arial;fill:#334155}.white{font:700 17px Arial;fill:white}</style>
<rect width="1200" height="620" rx="28" fill="#f8fafc"/><text x="70" y="68" class="title">Tahsilat Faturası</text><text x="70" y="104" class="subtitle">Ortalama tahsilat günü · öğretim amaçlı temsili veri / süreç</text>
<line x1="120" y1="480" x2="1020" y2="480" stroke="#e2e8f0" stroke-width="1"/><text x="106" y="485" text-anchor="end" class="axis">0</text><line x1="120" y1="402.5" x2="1020" y2="402.5" stroke="#e2e8f0" stroke-width="1"/><text x="106" y="407.5" text-anchor="end" class="axis">25</text><line x1="120" y1="325" x2="1020" y2="325" stroke="#e2e8f0" stroke-width="1"/><text x="106" y="330" text-anchor="end" class="axis">50</text><line x1="120" y1="247.5" x2="1020" y2="247.5" stroke="#e2e8f0" stroke-width="1"/><text x="106" y="252.5" text-anchor="end" class="axis">75</text><line x1="120" y1="170" x2="1020" y2="170" stroke="#e2e8f0" stroke-width="1"/><text x="106" y="175" text-anchor="end" class="axis">100</text><path d="M120 480V170M120 480H1020" fill="none" stroke="#334155" stroke-width="2"/><polyline points="120,384 248.57142857142858,374.4 377.14285714285717,419.2 505.7142857142858,262.4 634.2857142857143,332.79999999999995 762.8571428571429,236.79999999999998 891.4285714285716,240 1020.0000000000001,374.4" fill="none" stroke="#c2410c" stroke-width="7"/><circle cx="120" cy="384" r="7" fill="#c2410c"/><text x="120" y="369" text-anchor="middle" class="value">30</text><text x="120" y="510" text-anchor="middle" class="axis">Ocak</text><circle cx="248.57142857142858" cy="374.4" r="7" fill="#c2410c"/><text x="248.57142857142858" y="359.4" text-anchor="middle" class="value">33</text><text x="248.57142857142858" y="510" text-anchor="middle" class="axis">Ocak</text><circle cx="377.14285714285717" cy="419.2" r="7" fill="#c2410c"/><text x="377.14285714285717" y="404.2" text-anchor="middle" class="value">19</text><text x="377.14285714285717" y="510" text-anchor="middle" class="axis">Şubat</text><circle cx="505.7142857142858" cy="262.4" r="7" fill="#c2410c"/><text x="505.7142857142858" y="247.39999999999998" text-anchor="middle" class="value">68</text><text x="505.7142857142858" y="510" text-anchor="middle" class="axis">Şubat</text><circle cx="634.2857142857143" cy="332.79999999999995" r="7" fill="#c2410c"/><text x="634.2857142857143" y="317.79999999999995" text-anchor="middle" class="value">46</text><text x="634.2857142857143" y="510" text-anchor="middle" class="axis">Mart</text><circle cx="762.8571428571429" cy="236.79999999999998" r="7" fill="#c2410c"/><text x="762.8571428571429" y="221.79999999999998" text-anchor="middle" class="value">76</text><text x="762.8571428571429" y="510" text-anchor="middle" class="axis">Nisan</text><circle cx="891.4285714285716" cy="240" r="7" fill="#c2410c"/><text x="891.4285714285716" y="225" text-anchor="middle" class="value">75</text><text x="891.4285714285716" y="510" text-anchor="middle" class="axis">Nisan</text><circle cx="1020.0000000000001" cy="374.4" r="7" fill="#c2410c"/><text x="1020.0000000000001" y="359.4" text-anchor="middle" class="value">33</text><text x="1020.0000000000001" y="510" text-anchor="middle" class="axis">Mayıs</text><text x="570" y="548" text-anchor="middle" class="axis">Ortalama tahsilat günü</text>
<text x="70" y="590" class="subtitle">Kaynak tanımı: banka hareketi, vade listesi ve teyitli ödeme planı · LocalKarar yayın standardı v4</text></svg>