<svg xmlns="http://www.w3.org/2000/svg" width="1200" height="620" viewBox="0 0 1200 620" role="img" aria-labelledby="title desc" data-visual-kind="waterfall" data-fingerprint="68584e6d4de37312" data-series-labels="Ocak|Şubat|Mart|Nisan|Mayıs">
<title id="title">Net Kâr · waterfall</title>
<desc id="desc">Net kâr marjı için konuya özel ölçüm veya süreç gösterimi. Değerler öğretim amaçlı temsili örnektir.</desc>
<defs><marker id="arrow" markerWidth="10" markerHeight="10" refX="8" refY="3" orient="auto"><path d="M0,0 L0,6 L9,3 z" fill="#2563eb"/></marker></defs>
<style>.title{font:700 31px Arial;fill:#0f172a}.subtitle{font:18px Arial;fill:#475569}.axis{font:16px Arial;fill:#475569}.label{font:700 17px Arial;fill:#0f172a}.value{font:700 15px Arial;fill:#334155}.white{font:700 17px Arial;fill:white}</style>
<rect width="1200" height="620" rx="28" fill="#f8fafc"/><text x="70" y="68" class="title">Net Kâr</text><text x="70" y="104" class="subtitle">Net kâr marjı · öğretim amaçlı temsili veri / süreç</text>
<path d="M120 480V170M120 480H1020" fill="none" stroke="#334155" stroke-width="2"/><rect x="165" y="330.4" width="105" height="149.60000000000002" rx="7" fill="#2563eb"/><text x="217" y="320.4" text-anchor="middle" class="value">+68</text><rect x="335" y="330.4" width="105" height="39.6" rx="7" fill="#dc2626"/><text x="387" y="320.4" text-anchor="middle" class="value">-18</text><rect x="505" y="370" width="105" height="50.6" rx="7" fill="#dc2626"/><text x="557" y="360" text-anchor="middle" class="value">-23</text><rect x="675" y="420.6" width="105" height="70.4" rx="7" fill="#dc2626"/><text x="727" y="410.6" text-anchor="middle" class="value">-32</text><rect x="845" y="460" width="105" height="18" rx="7" fill="#dc2626"/><text x="897" y="450" text-anchor="middle" class="value">-5</text><text x="217" y="520" text-anchor="middle" class="axis">Gelir</text><text x="387" y="520" text-anchor="middle" class="axis">Kesinti</text><text x="557" y="520" text-anchor="middle" class="axis">Operasyon</text><text x="727" y="520" text-anchor="middle" class="axis">Kayıp</text><text x="897" y="520" text-anchor="middle" class="axis">Kalan</text>
<text x="70" y="590" class="subtitle">Kaynak tanımı: gelir tablosu, gider dökümü ve dönem kapanışı · LocalKarar yayın standardı v4</text></svg>